<svg width="50" height="50" xmlns="http://www.w3.org/2000/svg" xmlns:xlink="http://www.w3.org/1999/xlink" overflow="hidden"><defs><clipPath id="clip0"><rect x="446" y="116" width="50" height="50"/></clipPath></defs><g clip-path="url(#clip0)" transform="translate(-446 -116)"><path d="M467 118C465.354 118 464 119.355 464 121L464 123 454 123C453.448 122.992 452.994 123.434 452.986 123.986 452.978 124.538 453.419 124.992 453.972 125 453.981 125 453.991 125 454 125L455 125 455 161C455 162.654 456.346 164 458 164L484 164C485.654 164 487 162.654 487 161L487 125 488 125C488.552 125.008 489.006 124.566 489.014 124.014 489.022 123.462 488.581 123.008 488.028 123 488.019 123 488.009 123 488 123L478 123 478 121C478 119.355 476.646 118 475 118L467 118ZM467 120 475 120C475.555 120 476 120.445 476 121L476 123 466 123 466 121C466 120.445 466.445 120 467 120ZM465 130C465.552 130 466 130.448 466 131L466 156C466 156.553 465.552 157 465 157 464.448 157 464 156.553 464 156L464 131C464 130.448 464.448 130 465 130ZM471 130C471.552 130 472 130.448 472 131L472 156C472 156.553 471.552 157 471 157 470.448 157 470 156.553 470 156L470 131C470 130.448 470.448 130 471 130ZM477 130C477.553 130 478 130.448 478 131L478 156C478 156.553 477.553 157 477 157 476.447 157 476 156.553 476 156L476 131C476 130.448 476.447 130 477 130Z" fill="#FF0000"/></g></svg>